<svg id="svg" version="1.1" xmlns="http://www.w3.org/2000/svg" xmlns:xlink="http://www.w3.org/1999/xlink" width="400" height="239.43161634103018" viewBox="0, 0, 400,239.43161634103018"><g id="svgg"><path id="path0" d="M0.000 119.760 L 0.000 239.521 200.000 239.521 L 400.000 239.521 400.000 119.760 L 400.000 0.000 200.000 0.000 L 0.000 0.000 0.000 119.760 M91.976 32.337 C 92.569 32.504,93.382 32.949,93.784 33.326 C 94.185 33.703,94.619 34.012,94.748 34.012 C 95.069 34.012,96.234 35.325,97.166 36.738 C 99.308 39.984,98.787 46.397,96.053 50.448 C 95.655 51.038,95.329 51.631,95.329 51.765 C 95.329 51.898,95.072 52.351,94.757 52.770 C 93.616 54.290,92.186 57.725,92.695 57.725 C 92.826 57.725,92.934 57.582,92.934 57.407 C 92.934 55.944,96.599 55.655,113.772 55.768 C 125.421 55.844,125.790 55.928,128.513 59.128 C 131.117 62.190,130.888 60.002,130.965 82.559 L 131.031 102.243 131.923 102.106 C 132.413 102.030,133.240 101.660,133.760 101.283 C 134.280 100.907,134.819 100.596,134.957 100.593 C 135.096 100.591,135.479 100.377,135.808 100.120 C 136.138 99.862,136.657 99.649,136.962 99.646 C 137.602 99.640,138.328 99.287,139.012 98.650 C 139.276 98.405,139.690 98.204,139.933 98.204 C 140.176 98.204,140.436 98.042,140.512 97.844 C 140.588 97.647,140.827 97.485,141.044 97.484 C 141.260 97.484,141.814 97.249,142.275 96.963 C 144.803 95.396,147.200 94.380,148.385 94.374 C 148.650 94.372,148.996 94.165,149.154 93.912 C 149.341 93.611,149.609 93.497,149.927 93.580 C 150.240 93.662,150.466 93.569,150.562 93.321 C 150.643 93.108,150.952 92.934,151.248 92.934 C 151.544 92.934,152.052 92.692,152.376 92.395 C 153.026 91.801,155.034 90.778,155.551 90.778 C 155.731 90.778,156.348 90.510,156.922 90.183 C 157.495 89.855,158.129 89.585,158.330 89.584 C 158.531 89.582,158.881 89.365,159.106 89.102 C 159.332 88.838,159.760 88.623,160.058 88.623 C 160.592 88.622,162.339 87.809,164.671 86.473 C 165.329 86.096,166.044 85.779,166.258 85.768 C 166.473 85.757,166.782 85.587,166.946 85.389 C 167.110 85.192,167.448 85.030,167.697 85.030 C 167.946 85.030,168.337 84.930,168.566 84.808 C 168.795 84.685,169.467 84.380,170.060 84.128 C 173.004 82.879,173.928 82.592,174.519 82.740 C 174.867 82.827,175.281 82.774,175.470 82.618 C 175.653 82.465,176.317 82.301,176.944 82.253 C 177.571 82.205,178.569 82.045,179.162 81.898 C 179.913 81.713,180.421 81.707,180.838 81.879 C 181.351 82.090,181.368 82.128,180.958 82.142 C 180.695 82.151,180.170 82.320,179.793 82.516 C 179.416 82.713,178.875 82.874,178.591 82.874 C 177.033 82.874,174.296 85.090,174.003 86.588 C 173.730 87.983,175.251 88.715,176.753 87.911 C 177.007 87.776,177.555 87.665,177.971 87.665 C 178.388 87.665,179.015 87.519,179.364 87.340 C 181.086 86.462,182.502 86.212,185.590 86.242 C 187.721 86.263,188.828 86.178,189.165 85.968 C 189.573 85.713,189.756 85.729,190.267 86.065 C 190.605 86.286,191.088 86.467,191.339 86.467 C 191.591 86.467,191.932 86.629,192.096 86.826 C 192.260 87.024,192.521 87.186,192.675 87.186 C 192.994 87.186,194.545 88.748,194.908 89.435 C 195.425 90.415,195.070 90.660,193.101 90.685 C 191.400 90.707,184.937 92.495,183.177 93.431 C 182.948 93.553,182.611 93.653,182.428 93.653 C 182.245 93.653,181.960 93.814,181.796 94.012 C 181.632 94.210,181.263 94.371,180.975 94.371 C 180.687 94.371,180.242 94.530,179.986 94.723 C 179.730 94.916,179.305 95.079,179.042 95.084 C 178.778 95.089,178.293 95.233,177.964 95.405 C 177.635 95.577,176.772 95.913,176.048 96.152 C 175.323 96.392,174.299 96.778,173.772 97.011 C 173.246 97.244,171.952 97.728,170.898 98.088 C 168.471 98.917,163.603 100.776,163.060 101.082 C 162.833 101.209,161.971 101.540,161.144 101.816 C 160.317 102.092,159.263 102.488,158.802 102.697 C 158.341 102.905,157.107 103.379,156.060 103.750 C 153.818 104.544,153.282 104.960,153.713 105.573 C 154.944 107.322,154.981 108.476,153.868 110.313 C 152.087 113.252,152.219 113.824,154.641 113.668 C 155.506 113.613,156.275 113.506,156.350 113.430 C 156.425 113.355,156.822 113.293,157.232 113.293 C 157.642 113.293,158.195 113.141,158.461 112.955 C 159.097 112.509,162.749 112.179,162.977 112.547 C 163.068 112.694,163.343 112.814,163.589 112.814 C 164.068 112.814,167.571 114.625,167.797 114.990 C 168.051 115.401,169.227 115.211,170.098 114.620 C 171.119 113.926,173.315 113.054,174.043 113.054 C 176.293 113.053,178.613 115.819,178.297 118.126 C 178.133 119.321,178.207 119.418,180.017 120.380 C 180.657 120.721,181.562 121.295,182.027 121.657 C 182.493 122.019,183.072 122.387,183.313 122.475 C 184.652 122.962,181.210 124.488,179.675 124.088 C 174.377 122.707,172.324 122.813,170.146 124.583 C 169.843 124.830,166.038 125.498,164.901 125.505 C 164.501 125.507,163.779 125.308,163.297 125.062 C 162.628 124.721,162.394 124.688,162.305 124.920 C 162.102 125.449,160.765 125.595,160.102 125.160 C 159.774 124.945,159.565 124.674,159.637 124.557 C 159.709 124.440,159.659 124.277,159.525 124.194 C 159.391 124.111,159.281 123.832,159.281 123.573 C 159.281 122.970,160.452 122.462,160.774 122.925 C 160.911 123.121,160.930 123.016,160.826 122.635 C 160.467 121.325,160.310 121.262,156.048 120.736 C 151.155 120.132,150.466 119.900,151.557 119.224 L 152.216 118.815 151.451 118.809 C 151.031 118.805,150.626 118.703,150.551 118.582 C 150.473 118.457,150.117 118.511,149.722 118.708 C 149.341 118.898,148.074 119.141,146.905 119.249 C 145.737 119.357,144.567 119.556,144.306 119.691 C 144.046 119.826,143.132 120.012,142.275 120.103 C 140.218 120.322,137.332 120.900,136.286 121.303 C 135.824 121.481,134.692 121.700,133.771 121.790 C 129.828 122.175,129.870 122.059,129.935 132.335 C 129.962 136.732,130.119 141.031,130.318 142.874 C 130.799 147.325,130.811 178.667,130.332 180.599 C 129.686 183.209,127.693 185.560,125.096 186.777 L 123.713 187.425 98.687 187.488 C 74.399 187.550,73.621 187.538,72.275 187.083 C 70.912 186.623,68.503 185.230,68.503 184.902 C 68.503 184.809,68.037 184.040,67.468 183.191 C 66.899 182.342,66.333 181.439,66.211 181.183 C 66.078 180.906,65.940 164.980,65.868 141.677 C 65.769 109.312,65.693 102.526,65.421 101.999 C 65.072 101.322,65.075 101.323,61.633 100.760 C 56.211 99.872,51.957 97.485,55.799 97.485 C 56.167 97.485,56.602 97.323,56.766 97.126 C 56.930 96.928,57.252 96.766,57.481 96.766 C 57.711 96.766,58.292 96.453,58.773 96.071 C 59.801 95.254,61.607 94.970,63.766 95.286 C 65.774 95.580,65.647 96.660,65.470 80.820 C 65.308 66.334,65.452 62.741,66.233 61.796 C 66.396 61.599,66.596 61.219,66.677 60.953 C 66.758 60.687,67.129 60.135,67.502 59.726 C 67.875 59.318,68.396 58.709,68.659 58.375 C 69.477 57.336,72.338 56.299,74.528 56.249 C 76.976 56.193,81.552 56.422,81.866 56.616 C 82.634 57.090,82.021 55.580,80.728 53.810 C 78.749 51.102,78.715 51.057,77.501 49.603 C 74.913 46.501,73.954 40.883,75.535 38.084 C 77.621 34.390,81.714 32.072,86.062 32.122 C 87.223 32.136,88.247 32.073,88.337 31.983 C 88.558 31.761,90.649 31.965,91.976 32.337 M84.671 60.599 C 84.575 60.753,84.605 60.988,84.736 61.120 C 84.896 61.279,85.034 61.265,85.150 61.078 C 85.245 60.923,85.216 60.689,85.084 60.557 C 84.924 60.397,84.787 60.411,84.671 60.599 M87.442 61.046 C 87.144 61.603,87.324 61.796,88.144 61.796 C 88.495 61.796,88.850 61.728,88.934 61.645 C 89.204 61.375,88.618 60.599,88.144 60.599 C 87.890 60.599,87.574 60.800,87.442 61.046 M46.467 62.104 C 49.454 63.173,51.212 67.090,50.178 70.372 C 49.043 73.976,45.452 80.000,44.794 79.404 C 44.574 79.205,44.055 79.042,43.642 79.042 C 43.004 79.042,42.735 78.833,41.872 77.665 C 41.312 76.907,40.547 75.910,40.172 75.449 C 37.690 72.394,37.128 71.596,36.981 70.918 C 36.908 70.578,36.739 70.013,36.607 69.663 C 35.436 66.555,38.266 62.318,41.553 62.258 C 42.082 62.248,43.000 62.154,43.593 62.048 C 45.180 61.766,45.542 61.773,46.467 62.104 M83.234 62.036 C 83.012 62.394,83.320 62.754,83.846 62.754 C 84.152 62.754,84.311 62.590,84.311 62.275 C 84.311 61.767,83.510 61.589,83.234 62.036 M85.318 63.103 C 85.039 63.715,83.740 63.815,82.216 63.341 C 82.051 63.290,81.916 63.353,81.916 63.481 C 81.916 63.612,80.955 63.722,79.701 63.735 C 73.304 63.800,71.877 64.213,70.899 66.285 C 70.408 67.324,70.165 94.352,70.632 96.048 C 70.851 96.847,71.745 97.030,80.000 97.967 C 86.344 98.687,92.248 99.467,94.251 99.849 C 94.778 99.949,95.906 99.964,96.758 99.882 C 98.376 99.726,99.703 100.178,100.958 101.313 C 101.814 102.087,106.308 102.010,107.110 101.208 C 107.478 100.840,107.942 100.619,108.267 100.656 C 108.565 100.690,108.857 100.584,108.916 100.419 C 108.974 100.254,108.851 100.120,108.643 100.120 C 107.936 100.120,108.264 99.523,109.224 99.063 C 110.256 98.569,110.624 97.486,109.760 97.484 C 109.530 97.483,108.914 97.364,108.391 97.218 L 107.440 96.955 108.091 96.613 C 108.994 96.140,108.906 95.912,107.794 95.846 C 106.729 95.783,104.889 95.043,104.434 94.494 C 104.085 94.074,105.138 92.455,105.761 92.455 C 105.952 92.455,106.108 92.351,106.108 92.223 C 106.108 91.597,107.187 92.437,107.213 93.084 C 107.267 94.414,107.264 94.410,107.815 94.115 C 108.386 93.810,108.717 94.109,108.758 94.970 C 108.770 95.234,108.835 95.314,108.901 95.150 C 109.071 94.729,109.701 94.776,109.701 95.210 C 109.701 95.407,109.908 95.569,110.161 95.569 C 110.776 95.569,111.126 94.398,111.031 92.661 C 110.949 91.168,111.525 90.212,112.679 89.923 C 113.282 89.771,113.360 89.531,113.666 86.900 L 113.824 85.537 115.056 85.342 C 116.088 85.178,116.300 85.058,116.366 84.596 C 116.409 84.293,116.693 83.931,116.998 83.792 C 117.303 83.654,117.669 83.282,117.813 82.968 C 117.956 82.653,118.176 82.395,118.301 82.395 C 118.730 82.395,119.281 81.642,119.281 81.057 C 119.281 79.674,119.841 78.563,120.537 78.563 C 121.111 78.563,121.198 78.469,121.198 77.844 C 121.198 77.206,121.277 77.126,121.916 77.126 C 122.395 77.126,122.635 77.006,122.635 76.766 C 122.635 76.569,122.796 76.407,122.994 76.407 C 123.192 76.407,123.353 76.246,123.353 76.048 C 123.353 75.464,124.068 75.635,124.108 76.228 C 124.151 76.855,124.386 75.117,124.833 70.872 C 125.475 64.766,125.405 64.726,113.627 64.549 C 109.162 64.482,103.030 64.323,100.000 64.197 C 96.970 64.070,93.419 63.942,92.108 63.911 L 89.725 63.856 89.526 64.623 C 89.316 65.433,89.073 65.515,87.695 65.240 C 87.190 65.139,86.946 64.950,86.946 64.660 C 86.946 63.970,86.682 63.473,86.314 63.473 C 86.126 63.473,85.890 63.249,85.788 62.974 C 85.611 62.494,85.593 62.499,85.318 63.103 M86.467 65.509 C 86.467 65.838,86.359 66.108,86.228 66.108 C 86.096 66.108,85.988 65.838,85.988 65.509 C 85.988 65.180,86.096 64.910,86.228 64.910 C 86.359 64.910,86.467 65.180,86.467 65.509 M84.059 66.139 C 85.212 66.541,84.533 66.819,82.395 66.819 C 79.696 66.820,79.035 66.561,80.838 66.210 C 82.778 65.832,83.153 65.823,84.059 66.139 M44.989 81.761 C 45.050 82.077,44.952 82.176,44.635 82.115 C 44.394 82.068,44.159 81.833,44.113 81.592 C 44.052 81.276,44.150 81.178,44.467 81.238 C 44.708 81.285,44.943 81.520,44.989 81.761 M184.226 82.762 C 186.696 83.281,189.125 84.936,188.620 85.753 C 188.537 85.887,187.148 85.988,185.400 85.988 C 183.105 85.988,181.940 86.101,180.804 86.435 C 175.954 87.857,175.120 88.006,174.602 87.537 C 173.046 86.129,176.241 83.500,180.230 82.906 C 181.273 82.751,182.178 82.573,182.241 82.510 C 182.389 82.362,182.226 82.341,184.226 82.762 M165.607 88.320 C 165.378 88.548,164.943 88.703,164.640 88.663 C 164.220 88.608,164.053 88.736,163.936 89.201 C 163.811 89.698,163.704 89.768,163.354 89.581 C 163.038 89.412,162.767 89.477,162.323 89.826 C 161.992 90.086,161.501 90.299,161.232 90.299 C 160.963 90.299,160.656 90.451,160.551 90.636 C 160.445 90.821,160.098 91.009,159.779 91.055 C 159.460 91.100,159.146 91.299,159.082 91.497 C 158.983 91.798,159.026 91.805,159.341 91.545 C 159.594 91.336,159.769 91.317,159.873 91.485 C 160.117 91.880,160.433 91.781,160.599 91.257 C 160.781 90.682,162.156 90.559,162.156 91.118 C 162.156 91.882,161.867 92.212,161.320 92.075 C 160.941 91.980,160.621 92.100,160.280 92.467 C 159.737 93.050,159.042 92.958,159.042 92.303 C 159.042 92.079,158.971 91.967,158.884 92.054 C 158.798 92.140,158.587 92.095,158.416 91.954 C 158.185 91.762,157.902 91.848,157.316 92.284 C 156.882 92.608,156.402 92.827,156.250 92.771 C 156.098 92.715,155.806 92.908,155.602 93.199 C 155.314 93.611,155.158 93.668,154.903 93.457 C 154.527 93.145,154.012 93.509,154.012 94.088 C 154.012 94.313,153.845 94.384,153.515 94.297 C 153.211 94.218,152.847 94.339,152.575 94.611 C 152.331 94.855,151.829 95.089,151.460 95.132 C 151.057 95.179,150.684 95.422,150.526 95.742 C 150.333 96.130,150.190 96.202,149.997 96.009 C 149.555 95.567,148.982 95.975,148.982 96.732 C 148.982 97.663,148.137 98.762,147.896 98.144 C 147.633 97.468,147.951 96.887,148.386 97.248 C 148.675 97.488,148.743 97.475,148.743 97.181 C 148.743 96.708,148.158 96.489,147.814 96.833 C 147.437 97.210,147.479 98.330,147.883 98.665 C 148.148 98.885,148.289 98.848,148.541 98.492 C 148.718 98.243,149.132 97.977,149.461 97.901 C 151.017 97.543,151.985 97.030,152.194 96.453 L 152.413 95.851 152.831 96.368 L 153.250 96.885 153.550 96.227 C 153.783 95.715,154.015 95.569,154.592 95.569 C 155.064 95.569,155.438 95.402,155.621 95.110 C 155.802 94.820,156.078 94.695,156.370 94.771 C 156.624 94.838,156.897 94.787,156.976 94.659 C 157.056 94.530,156.987 94.430,156.824 94.436 C 155.871 94.470,155.658 94.353,155.732 93.832 C 155.833 93.118,157.126 92.892,157.126 93.588 C 157.126 94.148,158.228 94.188,158.642 93.643 C 158.796 93.440,159.177 93.258,159.488 93.237 C 159.799 93.216,160.249 93.022,160.489 92.806 C 160.753 92.567,161.111 92.471,161.401 92.563 C 161.749 92.674,161.919 92.583,162.033 92.226 C 162.132 91.912,162.394 91.737,162.762 91.737 C 163.078 91.737,163.444 91.535,163.576 91.289 C 163.738 90.987,163.998 90.876,164.377 90.949 C 164.709 91.012,165.068 90.901,165.253 90.678 C 165.426 90.470,165.802 90.299,166.089 90.299 C 166.758 90.299,167.186 89.868,167.186 89.193 C 167.186 87.908,166.434 87.492,165.607 88.320 M166.901 89.060 C 166.971 89.763,166.922 89.820,166.252 89.820 C 165.824 89.820,165.335 90.027,165.058 90.325 C 164.479 90.946,164.072 90.737,164.072 89.820 C 164.072 89.031,164.429 88.703,164.881 89.077 C 165.111 89.269,165.324 89.179,165.721 88.723 C 166.386 87.958,166.804 88.077,166.901 89.060 M55.814 90.016 C 56.077 90.501,56.390 91.060,56.509 91.257 C 57.216 92.431,58.232 94.886,58.164 95.255 C 58.056 95.837,56.108 96.799,55.210 96.715 L 54.491 96.647 54.425 92.952 C 54.346 88.548,54.659 87.885,55.814 90.016 M163.477 90.311 C 163.687 90.973,163.171 91.603,162.723 91.231 C 162.319 90.896,162.304 90.486,162.683 90.108 C 163.093 89.698,163.299 89.750,163.477 90.311 M194.039 91.581 C 194.465 92.516,193.400 94.205,190.976 96.437 C 186.819 100.264,184.907 101.516,178.084 104.882 C 173.108 107.336,172.403 107.636,168.743 108.852 C 166.898 109.465,165.066 110.115,164.671 110.298 C 163.410 110.879,158.341 112.273,155.263 112.885 C 153.655 113.205,153.249 112.917,153.912 111.928 C 155.209 109.999,155.591 107.684,154.849 106.260 C 154.652 105.883,154.491 105.482,154.491 105.369 C 154.491 105.117,156.907 103.952,157.429 103.952 C 157.636 103.952,158.111 103.793,158.484 103.599 C 159.146 103.254,159.727 103.011,161.916 102.162 C 162.509 101.932,163.263 101.635,163.593 101.502 C 163.922 101.369,164.892 101.014,165.749 100.713 C 166.605 100.411,169.030 99.494,171.138 98.674 C 173.246 97.854,175.533 96.988,176.220 96.750 C 176.908 96.511,177.824 96.153,178.256 95.953 C 179.014 95.603,179.583 95.390,182.156 94.492 C 182.814 94.262,183.677 93.936,184.072 93.767 C 184.467 93.598,186.084 93.060,187.665 92.571 C 189.246 92.082,190.970 91.538,191.497 91.362 C 192.989 90.862,193.741 90.927,194.039 91.581 M158.443 93.054 C 158.443 93.893,157.970 94.096,157.604 93.412 C 157.398 93.027,157.403 92.818,157.624 92.552 C 158.052 92.036,158.443 92.276,158.443 93.054 M155.210 94.648 C 155.210 95.195,154.566 95.500,154.194 95.128 C 153.758 94.692,154.393 93.513,154.856 93.897 C 155.051 94.058,155.210 94.396,155.210 94.648 M153.533 95.329 C 153.533 96.252,153.122 96.460,152.780 95.709 C 152.567 95.242,152.573 95.021,152.806 94.740 C 153.219 94.243,153.533 94.498,153.533 95.329 M152.053 96.105 C 151.972 96.670,151.243 96.967,150.865 96.589 C 150.489 96.213,150.914 95.569,151.539 95.569 C 152.013 95.569,152.114 95.674,152.053 96.105 M150.180 97.250 C 149.576 97.633,149.222 97.513,149.222 96.926 C 149.222 96.102,149.492 95.972,150.047 96.528 C 150.471 96.954,150.489 97.053,150.180 97.250 M103.751 97.186 C 104.731 98.351,105.874 101.317,105.344 101.317 C 104.829 101.317,102.167 100.788,101.617 100.577 C 100.783 100.256,100.812 97.814,101.653 97.494 C 101.970 97.374,102.300 97.161,102.386 97.021 C 102.627 96.630,103.359 96.719,103.751 97.186 M145.661 97.898 C 145.534 98.125,145.183 98.314,144.880 98.317 C 144.183 98.325,143.647 99.780,144.211 100.137 C 144.705 100.449,144.855 100.415,145.408 99.862 C 145.691 99.579,146.065 99.426,146.276 99.507 C 146.849 99.726,147.305 99.188,147.305 98.294 C 147.305 97.362,146.120 97.077,145.661 97.898 M137.725 98.323 C 137.725 98.521,137.617 98.683,137.485 98.683 C 137.353 98.683,137.246 98.521,137.246 98.323 C 137.246 98.126,137.353 97.964,137.485 97.964 C 137.617 97.964,137.725 98.126,137.725 98.323 M146.945 98.202 C 147.258 98.709,146.723 99.194,146.240 98.841 C 145.995 98.662,145.872 98.392,145.966 98.240 C 146.175 97.901,146.746 97.879,146.945 98.202 M145.030 99.162 C 145.030 99.337,144.895 99.526,144.731 99.581 C 144.552 99.640,144.431 99.470,144.431 99.162 C 144.431 98.853,144.552 98.683,144.731 98.743 C 144.895 98.797,145.030 98.986,145.030 99.162 M142.797 99.215 C 142.407 99.605,142.444 100.481,142.864 100.830 C 143.349 101.232,143.713 100.935,143.713 100.135 C 143.713 99.308,143.209 98.803,142.797 99.215 M143.473 100.134 C 143.473 100.651,143.092 100.767,142.929 100.299 C 142.783 99.881,143.001 99.377,143.259 99.536 C 143.377 99.609,143.473 99.878,143.473 100.134 M140.935 100.481 C 140.628 100.950,140.386 101.076,139.989 100.977 C 139.563 100.870,139.434 100.961,139.343 101.434 C 139.158 102.400,140.127 102.677,140.600 101.793 C 140.815 101.392,140.942 101.356,141.358 101.579 C 141.966 101.904,142.312 101.510,142.218 100.601 C 142.132 99.776,141.439 99.711,140.935 100.481 M109.461 100.599 C 109.925 100.899,110.180 100.899,110.180 100.599 C 110.180 100.467,109.937 100.361,109.641 100.363 C 109.205 100.366,109.171 100.411,109.461 100.599 M137.964 102.275 C 137.964 102.982,138.271 103.226,138.564 102.752 C 138.757 102.440,138.479 101.557,138.187 101.557 C 138.065 101.557,137.964 101.880,137.964 102.275 M71.123 102.476 C 70.934 102.537,70.700 102.705,70.605 102.850 C 70.509 102.995,70.428 113.722,70.423 126.687 C 70.415 152.817,70.383 152.288,71.938 152.359 C 72.405 152.381,72.397 152.399,71.856 152.553 C 71.377 152.689,71.266 152.864,71.298 153.427 C 71.320 153.815,71.232 159.085,71.101 165.140 C 70.828 177.807,70.834 177.865,72.450 178.812 L 73.455 179.401 82.656 179.406 C 91.444 179.410,108.361 179.045,112.036 178.771 C 114.275 178.604,114.289 178.204,112.056 178.204 C 108.953 178.204,110.459 178.026,114.706 177.891 C 117.783 177.793,118.925 177.676,119.070 177.442 C 119.344 177.002,118.516 176.817,116.879 176.953 C 115.855 177.038,115.482 176.975,115.233 176.675 C 115.056 176.462,114.713 176.287,114.470 176.287 C 114.227 176.287,113.913 176.072,113.772 175.808 C 113.631 175.545,113.316 175.329,113.071 175.329 C 112.826 175.329,112.564 175.168,112.488 174.970 C 112.412 174.772,112.091 174.611,111.773 174.611 C 111.456 174.611,111.062 174.449,110.898 174.251 C 110.734 174.054,110.398 173.892,110.150 173.892 C 109.810 173.892,109.701 173.717,109.701 173.174 C 109.701 172.514,109.769 172.455,110.525 172.455 C 110.978 172.455,111.416 172.347,111.497 172.216 C 111.578 172.084,112.225 171.976,112.934 171.976 C 114.218 171.976,114.829 171.678,114.111 171.402 C 113.903 171.323,113.158 171.257,112.455 171.257 C 110.956 171.257,110.419 171.093,110.419 170.633 C 110.419 170.135,109.280 170.212,109.147 170.719 C 109.043 171.118,109.036 171.118,109.010 170.719 C 108.991 170.442,108.784 170.299,108.401 170.299 C 108.049 170.299,107.776 170.465,107.710 170.719 C 107.606 171.118,107.599 171.118,107.573 170.719 C 107.557 170.488,107.383 170.299,107.186 170.299 C 106.988 170.299,106.826 170.138,106.826 169.940 C 106.826 169.443,106.407 169.488,106.273 170.000 C 106.169 170.399,106.162 170.399,106.136 170.000 C 106.120 169.769,106.008 169.581,105.886 169.581 C 105.764 169.581,105.615 169.769,105.554 170.000 C 105.450 170.399,105.443 170.399,105.417 170.000 C 105.383 169.490,104.910 169.434,104.910 169.940 C 104.910 170.206,104.631 170.299,103.832 170.299 L 102.754 170.299 102.754 169.222 L 102.754 168.144 99.880 168.144 L 97.006 168.144 97.006 167.425 L 97.006 166.707 94.132 166.707 L 91.257 166.707 91.257 165.629 L 91.257 164.551 85.549 164.551 L 79.841 164.551 79.513 163.937 C 79.241 163.429,79.239 163.288,79.500 163.127 C 79.738 162.980,79.752 162.821,79.556 162.484 C 79.313 162.065,79.296 162.071,79.289 162.575 C 79.280 163.211,78.648 163.306,78.488 162.695 C 78.394 162.332,78.375 162.329,78.351 162.671 C 78.330 162.973,78.102 163.057,77.388 163.030 C 76.873 163.010,76.492 162.953,76.540 162.904 C 76.588 162.854,76.485 162.531,76.310 162.185 C 76.135 161.840,75.914 161.126,75.819 160.599 C 75.724 160.072,75.556 159.532,75.446 159.398 C 75.238 159.147,75.108 158.267,75.172 157.549 C 75.193 157.321,75.475 157.068,75.799 156.987 L 76.388 156.839 75.707 156.266 C 74.907 155.593,74.605 154.524,75.156 154.313 C 75.389 154.223,75.825 154.502,76.352 155.077 C 77.667 156.512,79.037 156.699,80.531 155.647 C 81.061 155.274,81.156 155.061,81.044 154.501 C 80.968 154.123,81.070 152.969,81.271 151.937 C 81.471 150.904,81.707 149.537,81.794 148.898 C 81.993 147.444,83.813 143.915,85.026 142.635 C 85.525 142.108,86.218 141.215,86.567 140.651 C 86.916 140.086,87.642 139.332,88.180 138.974 C 88.718 138.616,89.675 137.859,90.307 137.292 C 90.939 136.724,91.820 136.160,92.265 136.037 C 92.710 135.914,93.684 135.446,94.430 134.996 C 96.319 133.859,97.542 133.465,99.751 133.282 C 100.800 133.195,101.932 133.016,102.266 132.886 C 102.997 132.601,105.897 132.625,107.066 132.926 C 107.527 133.045,108.551 133.317,109.341 133.530 C 110.132 133.743,111.407 134.062,112.176 134.238 C 112.972 134.422,113.848 134.813,114.212 135.147 C 114.563 135.470,115.491 135.911,116.274 136.126 C 117.930 136.581,121.651 140.169,123.262 142.864 C 123.731 143.648,124.308 144.536,124.545 144.837 L 124.975 145.384 125.103 144.848 C 125.173 144.553,125.396 143.880,125.599 143.353 C 126.868 140.050,125.812 123.097,124.313 122.705 C 124.071 122.641,123.807 122.327,123.727 122.006 C 123.646 121.685,123.314 121.191,122.988 120.908 C 122.315 120.323,122.254 119.848,122.762 119.176 C 124.329 117.104,122.196 116.937,118.198 118.818 C 117.089 119.340,114.859 120.261,113.241 120.863 C 111.623 121.466,109.976 122.103,109.581 122.279 C 109.186 122.454,107.953 122.990,106.841 123.469 C 105.730 123.949,104.446 124.670,103.988 125.072 C 102.698 126.204,99.898 125.684,98.863 124.120 L 98.265 123.217 95.420 122.911 C 93.855 122.743,91.874 122.404,91.018 122.158 C 89.505 121.722,87.050 121.254,82.874 120.606 C 80.395 120.221,80.062 120.094,79.860 119.457 C 79.660 118.828,80.367 118.255,81.065 118.479 C 81.336 118.566,83.713 118.733,86.347 118.851 C 88.982 118.969,91.946 119.103,92.934 119.149 C 93.922 119.195,95.754 119.266,97.006 119.305 C 98.257 119.345,99.470 119.489,99.701 119.626 C 100.000 119.804,100.256 119.791,100.596 119.579 C 100.857 119.415,101.304 119.281,101.588 119.281 C 102.213 119.281,105.838 117.482,107.591 116.301 C 108.287 115.833,108.933 115.449,109.027 115.449 C 109.121 115.449,109.661 115.146,110.228 114.775 C 110.794 114.404,111.823 113.839,112.515 113.520 C 113.207 113.202,113.772 112.866,113.772 112.775 C 113.772 112.684,113.928 112.453,114.119 112.262 C 114.645 111.736,113.710 111.011,112.096 110.694 C 111.371 110.551,109.772 110.170,108.543 109.845 C 107.313 109.521,105.589 109.180,104.710 109.089 C 103.832 108.997,102.833 108.779,102.491 108.605 C 102.038 108.375,101.796 108.360,101.605 108.551 C 101.460 108.695,100.986 108.832,100.551 108.854 C 100.116 108.877,99.565 108.982,99.327 109.089 C 98.996 109.238,98.862 109.163,98.760 108.774 C 98.610 108.198,97.546 108.059,97.054 108.551 C 96.859 108.746,96.766 108.754,96.766 108.574 C 96.766 108.285,94.151 107.448,92.485 107.204 C 91.908 107.120,91.210 106.892,90.934 106.699 C 90.658 106.506,90.150 106.347,89.805 106.347 C 89.460 106.347,88.649 106.183,88.002 105.983 C 86.755 105.596,84.723 105.184,80.240 104.410 C 78.725 104.148,77.108 103.812,76.647 103.663 C 74.976 103.123,71.460 102.368,71.123 102.476 M105.988 109.960 C 106.647 110.101,107.671 110.361,108.263 110.537 C 108.856 110.713,109.695 110.918,110.128 110.993 C 112.411 111.388,113.540 111.874,113.284 112.352 C 113.148 112.606,112.936 112.814,112.813 112.814 C 112.690 112.814,111.677 113.353,110.562 114.012 C 109.447 114.671,108.475 115.210,108.403 115.210 C 108.331 115.210,107.576 115.636,106.725 116.157 C 104.361 117.604,102.718 118.382,102.496 118.161 C 102.056 117.720,101.586 109.995,101.976 109.597 C 102.178 109.391,104.177 109.572,105.988 109.960 M120.479 115.344 L 119.641 115.662 120.394 115.675 C 120.852 115.683,121.200 115.548,121.284 115.329 C 121.360 115.132,121.399 114.983,121.370 114.999 C 121.341 115.014,120.940 115.170,120.479 115.344 M157.365 115.689 L 156.287 116.141 157.103 116.154 L 157.919 116.168 157.462 116.690 L 157.006 117.212 157.598 116.810 C 157.924 116.588,158.369 116.407,158.588 116.407 C 158.807 116.407,159.041 116.198,159.108 115.942 C 159.333 115.079,158.951 115.023,157.365 115.689 M122.044 120.281 C 122.036 122.227,122.021 122.277,121.437 122.347 C 121.108 122.386,120.353 122.568,119.760 122.750 C 119.168 122.933,117.820 123.260,116.766 123.477 C 115.713 123.694,114.519 123.971,114.115 124.091 C 113.710 124.212,113.000 124.311,112.536 124.311 C 112.072 124.311,111.164 124.472,110.517 124.668 C 109.186 125.072,105.389 125.162,105.389 124.790 C 105.389 124.659,105.635 124.551,105.935 124.551 C 106.235 124.551,106.693 124.404,106.953 124.224 C 107.213 124.044,107.695 123.817,108.024 123.720 C 108.576 123.557,110.478 122.787,112.216 122.023 C 113.380 121.511,117.166 119.978,118.204 119.598 C 118.731 119.406,119.264 119.148,119.389 119.025 C 119.514 118.903,119.798 118.802,120.021 118.802 C 120.243 118.802,120.725 118.646,121.093 118.455 C 122.021 117.974,122.052 118.035,122.044 120.281 M182.651 118.743 C 182.730 119.105,182.947 119.805,183.132 120.299 C 183.464 121.184,183.460 121.198,182.886 121.198 C 182.161 121.198,181.557 120.378,181.557 119.396 C 181.557 118.135,182.406 117.628,182.651 118.743 M72.575 129.301 C 72.729 138.450,73.148 138.967,73.238 130.120 C 73.277 126.202,73.390 123.832,73.537 123.832 C 73.685 123.832,73.772 126.138,73.772 130.060 C 73.772 133.485,73.692 136.287,73.593 136.287 C 73.395 136.287,73.405 136.670,73.737 141.916 C 73.862 143.892,74.140 146.241,74.355 147.136 C 74.767 148.852,74.702 149.286,74.051 149.179 C 73.490 149.087,73.054 149.413,73.054 149.924 C 73.054 150.335,73.009 150.337,72.223 149.970 C 71.304 149.539,71.066 148.743,71.856 148.743 C 72.385 148.743,72.363 149.041,72.436 140.838 C 72.468 137.230,72.426 136.766,72.072 136.766 C 71.956 136.766,71.863 139.155,71.866 142.076 C 71.870 145.420,71.781 147.477,71.625 147.633 C 71.172 148.086,71.594 123.476,72.065 121.936 C 72.314 121.124,72.477 123.478,72.575 129.301 M95.093 155.629 C 95.101 156.008,95.471 156.288,95.988 156.306 C 96.649 156.330,96.687 156.030,96.064 155.697 C 95.519 155.406,95.088 155.375,95.093 155.629 M84.387 157.784 C 84.305 158.015,84.091 158.377,83.910 158.588 C 83.165 159.459,84.358 160.164,85.329 159.427 C 86.040 158.887,85.902 157.365,85.142 157.365 C 84.781 157.365,84.476 157.535,84.387 157.784 " stroke="none" fill="#b4e1f1" fill-rule="evenodd"></path><path id="path1" d="M88.337 31.983 C 88.247 32.073,87.223 32.136,86.062 32.122 C 76.284 32.009,71.305 42.177,77.501 49.603 C 78.715 51.057,78.749 51.102,80.728 53.810 C 82.021 55.580,82.634 57.090,81.866 56.616 C 81.552 56.422,76.976 56.193,74.528 56.249 C 72.338 56.299,69.477 57.336,68.659 58.375 C 68.396 58.709,67.875 59.318,67.502 59.726 C 67.129 60.135,66.758 60.687,66.677 60.953 C 66.596 61.219,66.396 61.599,66.233 61.796 C 65.452 62.741,65.308 66.334,65.470 80.820 C 65.647 96.660,65.774 95.580,63.766 95.286 C 61.607 94.970,59.801 95.254,58.773 96.071 C 58.292 96.453,57.711 96.766,57.481 96.766 C 57.252 96.766,56.930 96.928,56.766 97.126 C 56.602 97.323,56.167 97.485,55.799 97.485 C 51.957 97.485,56.211 99.872,61.633 100.760 C 65.075 101.323,65.072 101.322,65.421 101.999 C 65.693 102.526,65.769 109.312,65.868 141.677 C 65.940 164.980,66.078 180.906,66.211 181.183 C 66.333 181.439,66.899 182.342,67.468 183.191 C 68.037 184.040,68.503 184.809,68.503 184.902 C 68.503 185.230,70.912 186.623,72.275 187.083 C 73.621 187.538,74.399 187.550,98.687 187.488 L 123.713 187.425 125.096 186.777 C 127.693 185.560,129.686 183.209,130.332 180.599 C 130.811 178.667,130.799 147.325,130.318 142.874 C 130.119 141.031,129.962 136.732,129.935 132.335 C 129.870 122.059,129.828 122.175,133.771 121.790 C 134.692 121.700,135.824 121.481,136.286 121.303 C 137.332 120.900,140.218 120.322,142.275 120.103 C 143.132 120.012,144.046 119.826,144.306 119.691 C 144.567 119.556,145.737 119.357,146.906 119.249 C 148.468 119.105,149.422 118.867,150.504 118.353 C 151.313 117.968,152.569 117.436,153.293 117.171 C 154.018 116.907,155.546 116.345,156.689 115.925 C 157.832 115.504,158.873 115.225,159.002 115.304 C 159.352 115.521,159.042 116.407,158.616 116.407 C 158.412 116.407,157.751 116.719,157.147 117.100 C 156.542 117.481,155.240 118.028,154.251 118.315 C 149.713 119.637,149.981 119.998,156.048 120.732 C 159.940 121.203,160.719 121.468,160.719 122.323 C 160.719 122.902,162.880 124.995,163.786 125.294 C 164.464 125.517,165.154 125.514,166.938 125.278 C 169.266 124.971,169.573 124.869,171.543 123.751 C 173.191 122.817,175.103 122.896,179.675 124.088 C 181.210 124.488,184.652 122.962,183.313 122.475 C 183.072 122.387,182.493 122.019,182.027 121.657 C 181.562 121.295,180.657 120.721,180.017 120.380 C 178.207 119.418,178.133 119.321,178.297 118.126 C 178.613 115.819,176.293 113.053,174.043 113.054 C 173.315 113.054,171.119 113.926,170.098 114.620 C 169.227 115.211,168.051 115.401,167.797 114.990 C 167.571 114.625,164.068 112.814,163.589 112.814 C 163.343 112.814,163.068 112.694,162.977 112.547 C 162.749 112.179,159.097 112.509,158.461 112.955 C 158.195 113.141,157.642 113.293,157.232 113.293 C 156.822 113.293,156.425 113.355,156.350 113.430 C 156.275 113.506,155.506 113.613,154.641 113.668 C 152.219 113.824,152.087 113.252,153.868 110.313 C 154.981 108.476,154.944 107.322,153.713 105.573 C 153.282 104.960,153.818 104.544,156.060 103.750 C 157.107 103.379,158.341 102.905,158.802 102.697 C 159.263 102.488,160.317 102.092,161.144 101.816 C 161.971 101.540,162.833 101.209,163.060 101.082 C 163.603 100.776,168.471 98.917,170.898 98.088 C 171.952 97.728,173.246 97.244,173.772 97.011 C 174.299 96.778,175.323 96.392,176.048 96.152 C 176.772 95.913,177.635 95.577,177.964 95.405 C 178.293 95.233,178.778 95.089,179.042 95.084 C 179.305 95.079,179.730 94.916,179.986 94.723 C 180.242 94.530,180.687 94.371,180.975 94.371 C 181.263 94.371,181.632 94.210,181.796 94.012 C 181.960 93.814,182.245 93.653,182.428 93.653 C 182.611 93.653,182.948 93.553,183.177 93.431 C 184.937 92.495,191.400 90.707,193.101 90.685 C 195.070 90.660,195.425 90.415,194.908 89.435 C 194.545 88.748,192.994 87.186,192.675 87.186 C 192.521 87.186,192.260 87.024,192.096 86.826 C 191.932 86.629,191.591 86.467,191.339 86.467 C 191.088 86.467,190.605 86.286,190.267 86.065 C 189.756 85.729,189.573 85.713,189.165 85.968 C 188.828 86.178,187.721 86.263,185.590 86.242 C 182.502 86.212,181.086 86.462,179.364 87.340 C 179.015 87.519,178.388 87.665,177.971 87.665 C 177.555 87.665,177.007 87.776,176.753 87.911 C 175.251 88.715,173.730 87.983,174.003 86.588 C 174.296 85.090,177.033 82.874,178.591 82.874 C 178.875 82.874,179.416 82.713,179.793 82.516 C 180.170 82.320,180.695 82.151,180.958 82.142 C 181.368 82.128,181.351 82.090,180.838 81.879 C 180.421 81.707,179.913 81.713,179.162 81.898 C 178.569 82.045,177.571 82.205,176.944 82.253 C 176.317 82.301,175.653 82.465,175.470 82.618 C 175.281 82.774,174.867 82.827,174.519 82.740 C 173.928 82.592,173.004 82.879,170.060 84.128 C 169.467 84.380,168.795 84.685,168.566 84.808 C 168.337 84.930,167.946 85.030,167.697 85.030 C 167.448 85.030,167.110 85.192,166.946 85.389 C 166.782 85.587,166.473 85.757,166.258 85.768 C 166.044 85.779,165.329 86.096,164.671 86.473 C 162.339 87.809,160.592 88.622,160.058 88.623 C 159.760 88.623,159.332 88.838,159.106 89.102 C 158.881 89.365,158.531 89.582,158.330 89.584 C 158.129 89.585,157.495 89.855,156.922 90.183 C 156.348 90.510,155.731 90.778,155.551 90.778 C 155.034 90.778,153.026 91.801,152.376 92.395 C 152.052 92.692,151.544 92.934,151.248 92.934 C 150.952 92.934,150.643 93.108,150.562 93.321 C 150.466 93.569,150.240 93.662,149.927 93.580 C 149.609 93.497,149.341 93.611,149.154 93.912 C 148.996 94.165,148.650 94.372,148.385 94.374 C 147.200 94.380,144.803 95.396,142.275 96.963 C 141.814 97.249,141.260 97.484,141.044 97.484 C 140.827 97.485,140.588 97.647,140.512 97.844 C 140.436 98.042,140.176 98.204,139.933 98.204 C 139.690 98.204,139.276 98.405,139.012 98.650 C 138.328 99.287,137.602 99.640,136.962 99.646 C 136.657 99.649,136.138 99.862,135.808 100.120 C 135.479 100.377,135.096 100.591,134.957 100.593 C 134.819 100.596,134.280 100.907,133.760 101.283 C 133.240 101.660,132.413 102.030,131.923 102.106 L 131.031 102.243 130.965 82.559 C 130.888 60.002,131.117 62.190,128.513 59.128 C 125.790 55.928,125.421 55.844,113.772 55.768 C 96.599 55.655,92.934 55.944,92.934 57.407 C 92.934 57.582,92.826 57.725,92.695 57.725 C 92.186 57.725,93.616 54.290,94.757 52.770 C 95.072 52.351,95.329 51.898,95.329 51.765 C 95.329 51.631,95.655 51.038,96.053 50.448 C 98.787 46.397,99.308 39.984,97.166 36.738 C 96.234 35.325,95.069 34.012,94.748 34.012 C 94.619 34.012,94.185 33.703,93.784 33.326 C 92.786 32.388,88.892 31.428,88.337 31.983 M85.150 61.078 C 85.034 61.265,84.896 61.279,84.736 61.120 C 84.605 60.988,84.575 60.753,84.671 60.599 C 84.787 60.411,84.924 60.397,85.084 60.557 C 85.216 60.689,85.245 60.923,85.150 61.078 M88.845 61.046 C 89.144 61.603,88.963 61.796,88.144 61.796 C 87.792 61.796,87.437 61.728,87.354 61.645 C 87.083 61.375,87.669 60.599,88.144 60.599 C 88.398 60.599,88.714 60.800,88.845 61.046 M43.593 62.048 C 43.000 62.154,42.082 62.248,41.553 62.258 C 38.266 62.318,35.436 66.555,36.607 69.663 C 36.739 70.013,36.908 70.578,36.981 70.918 C 37.128 71.596,37.690 72.394,40.172 75.449 C 40.547 75.910,41.312 76.907,41.872 77.665 C 42.735 78.833,43.004 79.042,43.642 79.042 C 44.055 79.042,44.574 79.205,44.794 79.404 C 45.159 79.734,45.266 79.655,46.004 78.506 C 51.271 70.304,51.786 66.692,48.177 63.238 C 46.798 61.918,45.791 61.657,43.593 62.048 M84.311 62.275 C 84.311 62.590,84.152 62.754,83.846 62.754 C 83.320 62.754,83.012 62.394,83.234 62.036 C 83.510 61.589,84.311 61.767,84.311 62.275 M86.314 63.473 C 86.682 63.473,86.946 63.970,86.946 64.660 C 86.946 64.950,87.190 65.139,87.695 65.240 C 89.073 65.515,89.316 65.433,89.526 64.623 L 89.725 63.856 92.108 63.911 C 93.419 63.942,96.970 64.070,100.000 64.197 C 103.030 64.323,109.162 64.482,113.627 64.549 C 125.405 64.726,125.475 64.766,124.833 70.872 C 124.386 75.117,124.151 76.855,124.108 76.228 C 124.068 75.635,123.353 75.464,123.353 76.048 C 123.353 76.246,123.192 76.407,122.994 76.407 C 122.796 76.407,122.635 76.569,122.635 76.766 C 122.635 77.006,122.395 77.126,121.916 77.126 C 121.277 77.126,121.198 77.206,121.198 77.844 C 121.198 78.469,121.111 78.563,120.537 78.563 C 119.841 78.563,119.281 79.674,119.281 81.057 C 119.281 81.642,118.730 82.395,118.301 82.395 C 118.176 82.395,117.956 82.653,117.813 82.968 C 117.669 83.282,117.303 83.654,116.998 83.792 C 116.693 83.931,116.409 84.293,116.366 84.596 C 116.300 85.058,116.088 85.178,115.056 85.342 L 113.824 85.537 113.666 86.900 C 113.360 89.531,113.282 89.771,112.679 89.923 C 111.525 90.212,110.949 91.168,111.031 92.661 C 111.126 94.398,110.776 95.569,110.161 95.569 C 109.908 95.569,109.701 95.407,109.701 95.210 C 109.701 94.776,109.071 94.729,108.901 95.150 C 108.835 95.314,108.770 95.234,108.758 94.970 C 108.717 94.109,108.386 93.810,107.815 94.115 C 107.264 94.410,107.267 94.414,107.213 93.084 C 107.187 92.437,106.108 91.597,106.108 92.223 C 106.108 92.351,105.952 92.455,105.761 92.455 C 105.138 92.455,104.085 94.074,104.434 94.494 C 104.889 95.043,106.729 95.783,107.794 95.846 C 108.906 95.912,108.994 96.140,108.091 96.613 L 107.440 96.955 108.391 97.218 C 108.914 97.364,109.530 97.483,109.760 97.484 C 110.624 97.486,110.256 98.569,109.224 99.063 C 108.264 99.523,107.936 100.120,108.643 100.120 C 108.851 100.120,108.974 100.254,108.916 100.419 C 108.857 100.584,108.565 100.690,108.267 100.656 C 107.942 100.619,107.478 100.840,107.110 101.208 C 106.308 102.010,101.814 102.087,100.958 101.313 C 99.703 100.178,98.376 99.726,96.758 99.882 C 95.906 99.964,94.778 99.949,94.251 99.849 C 92.248 99.467,86.344 98.687,80.000 97.967 C 71.745 97.030,70.851 96.847,70.632 96.048 C 70.165 94.352,70.408 67.324,70.899 66.285 C 71.877 64.213,73.304 63.800,79.701 63.735 C 80.955 63.722,81.916 63.612,81.916 63.481 C 81.916 63.353,82.051 63.290,82.216 63.341 C 83.740 63.815,85.039 63.715,85.318 63.103 C 85.593 62.499,85.611 62.494,85.788 62.974 C 85.890 63.249,86.126 63.473,86.314 63.473 M44.113 81.592 C 44.159 81.833,44.394 82.068,44.635 82.115 C 44.952 82.176,45.050 82.077,44.989 81.761 C 44.943 81.520,44.708 81.285,44.467 81.238 C 44.150 81.178,44.052 81.276,44.113 81.592 M167.040 88.283 C 167.459 89.375,167.024 90.299,166.089 90.299 C 165.802 90.299,165.426 90.470,165.253 90.678 C 165.068 90.901,164.709 91.012,164.377 90.949 C 163.998 90.876,163.738 90.987,163.576 91.289 C 163.444 91.535,163.078 91.737,162.762 91.737 C 162.394 91.737,162.132 91.912,162.033 92.226 C 161.919 92.583,161.749 92.674,161.401 92.563 C 161.111 92.471,160.753 92.567,160.489 92.806 C 160.249 93.022,159.799 93.216,159.488 93.236 C 159.177 93.256,158.778 93.471,158.602 93.712 C 158.402 93.987,158.117 94.099,157.839 94.010 C 157.537 93.914,157.307 94.033,157.120 94.382 C 156.935 94.728,156.692 94.855,156.376 94.773 C 156.078 94.695,155.803 94.817,155.621 95.110 C 155.438 95.402,155.064 95.569,154.592 95.569 C 154.015 95.569,153.783 95.715,153.550 96.227 L 153.250 96.885 152.831 96.368 L 152.413 95.851 152.194 96.453 C 151.985 97.030,151.017 97.543,149.461 97.901 C 149.132 97.977,148.718 98.243,148.541 98.492 C 148.117 99.091,147.545 98.650,147.545 97.725 C 147.545 96.614,148.438 96.275,148.807 97.246 C 148.883 97.443,148.953 97.251,148.963 96.819 C 148.983 95.980,149.536 95.548,149.997 96.009 C 150.190 96.202,150.333 96.130,150.526 95.742 C 150.684 95.422,151.057 95.179,151.460 95.132 C 151.829 95.089,152.331 94.855,152.575 94.611 C 152.847 94.339,153.211 94.218,153.515 94.297 C 153.845 94.384,154.012 94.313,154.012 94.088 C 154.012 93.509,154.527 93.145,154.903 93.457 C 155.158 93.668,155.314 93.611,155.602 93.199 C 155.806 92.908,156.098 92.715,156.250 92.771 C 156.402 92.827,156.882 92.608,157.316 92.284 C 157.946 91.815,158.175 91.753,158.450 91.982 C 158.730 92.214,158.839 92.151,159.032 91.643 C 159.198 91.207,159.445 91.018,159.849 91.018 C 160.167 91.018,160.490 90.856,160.566 90.659 C 160.641 90.461,160.932 90.299,161.212 90.299 C 161.492 90.299,161.992 90.086,162.323 89.826 C 162.767 89.477,163.038 89.412,163.354 89.581 C 163.704 89.768,163.811 89.698,163.936 89.201 C 164.053 88.736,164.220 88.608,164.640 88.663 C 164.943 88.703,165.378 88.548,165.607 88.320 C 166.125 87.801,166.848 87.783,167.040 88.283 M147.305 98.294 C 147.305 99.188,146.849 99.726,146.276 99.507 C 146.065 99.426,145.691 99.579,145.408 99.862 C 144.855 100.415,144.705 100.449,144.211 100.137 C 143.647 99.780,144.183 98.325,144.880 98.317 C 145.183 98.314,145.534 98.125,145.661 97.898 C 146.120 97.077,147.305 97.362,147.305 98.294 M137.246 98.323 C 137.246 98.521,137.353 98.683,137.485 98.683 C 137.617 98.683,137.725 98.521,137.725 98.323 C 137.725 98.126,137.617 97.964,137.485 97.964 C 137.353 97.964,137.246 98.126,137.246 98.323 M143.713 100.135 C 143.713 100.935,143.349 101.232,142.864 100.830 C 142.444 100.481,142.407 99.605,142.797 99.215 C 143.209 98.803,143.713 99.308,143.713 100.135 M142.218 100.601 C 142.312 101.510,141.966 101.904,141.358 101.579 C 140.942 101.356,140.815 101.392,140.600 101.793 C 140.127 102.677,139.158 102.400,139.343 101.434 C 139.434 100.961,139.563 100.870,139.989 100.977 C 140.386 101.076,140.628 100.950,140.935 100.481 C 141.439 99.711,142.132 99.776,142.218 100.601 M110.180 100.599 C 110.180 100.899,109.925 100.899,109.461 100.599 C 109.171 100.411,109.205 100.366,109.641 100.363 C 109.937 100.361,110.180 100.467,110.180 100.599 M138.562 102.034 C 138.725 102.548,138.552 102.994,138.189 102.994 C 138.065 102.994,137.964 102.671,137.964 102.275 C 137.964 101.462,138.333 101.313,138.562 102.034 M76.647 103.663 C 77.108 103.812,78.725 104.148,80.240 104.410 C 84.723 105.184,86.755 105.596,88.002 105.983 C 88.649 106.183,89.460 106.347,89.805 106.347 C 90.150 106.347,90.658 106.506,90.934 106.699 C 91.210 106.892,91.908 107.120,92.485 107.204 C 94.151 107.448,96.766 108.285,96.766 108.574 C 96.766 108.754,96.859 108.746,97.054 108.551 C 97.546 108.059,98.610 108.198,98.760 108.774 C 98.862 109.163,98.996 109.238,99.327 109.089 C 99.565 108.982,100.116 108.877,100.551 108.854 C 100.986 108.832,101.460 108.695,101.605 108.551 C 101.796 108.360,102.038 108.375,102.491 108.605 C 102.833 108.779,103.832 108.997,104.710 109.089 C 105.589 109.180,107.313 109.521,108.543 109.845 C 109.772 110.170,111.371 110.551,112.096 110.694 C 113.710 111.011,114.645 111.736,114.119 112.262 C 113.928 112.453,113.772 112.684,113.772 112.775 C 113.772 112.866,113.207 113.202,112.515 113.520 C 111.823 113.839,110.794 114.404,110.228 114.775 C 109.661 115.146,109.121 115.449,109.027 115.449 C 108.933 115.449,108.287 115.833,107.591 116.301 C 105.838 117.482,102.213 119.281,101.588 119.281 C 101.304 119.281,100.857 119.415,100.596 119.579 C 100.256 119.791,100.000 119.804,99.701 119.626 C 99.470 119.489,98.257 119.345,97.006 119.305 C 95.754 119.266,93.922 119.195,92.934 119.149 C 91.946 119.103,88.982 118.969,86.347 118.851 C 83.713 118.733,81.336 118.566,81.065 118.479 C 80.367 118.255,79.660 118.828,79.860 119.457 C 80.062 120.094,80.395 120.221,82.874 120.606 C 87.050 121.254,89.505 121.722,91.018 122.158 C 91.874 122.404,93.855 122.743,95.420 122.911 L 98.265 123.217 98.863 124.120 C 99.898 125.684,102.698 126.204,103.988 125.072 C 104.446 124.670,105.730 123.949,106.841 123.469 C 107.953 122.990,109.186 122.454,109.581 122.279 C 109.976 122.103,111.623 121.466,113.241 120.863 C 114.859 120.261,117.089 119.340,118.198 118.818 C 122.196 116.937,124.329 117.104,122.762 119.176 C 122.254 119.848,122.315 120.323,122.988 120.908 C 123.314 121.191,123.646 121.685,123.727 122.006 C 123.807 122.327,124.071 122.641,124.313 122.705 C 124.555 122.768,125.002 123.290,125.307 123.865 C 126.102 125.363,126.189 142.527,125.410 143.952 C 125.075 144.563,124.962 145.206,124.992 146.323 C 125.079 149.656,124.624 150.283,120.421 152.618 C 118.359 153.763,116.425 155.223,115.736 156.154 C 114.667 157.600,114.283 157.695,112.661 156.909 C 109.252 155.258,106.867 154.900,103.952 155.601 C 100.821 156.354,100.627 156.330,99.281 155.028 C 96.743 152.569,93.772 151.724,89.954 152.374 C 87.665 152.763,87.752 152.721,84.742 154.910 C 83.969 155.473,82.350 155.640,81.695 155.226 C 81.461 155.078,81.120 155.184,80.617 155.561 C 79.081 156.711,77.706 156.555,76.352 155.077 C 75.825 154.502,75.389 154.223,75.156 154.313 C 74.605 154.524,74.907 155.593,75.707 156.266 L 76.388 156.839 75.799 156.987 C 75.475 157.068,75.193 157.321,75.172 157.549 C 75.108 158.267,75.238 159.147,75.446 159.398 C 75.556 159.532,75.724 160.072,75.819 160.599 C 75.914 161.126,76.135 161.840,76.310 162.185 C 76.485 162.531,76.588 162.854,76.540 162.904 C 76.492 162.953,76.873 163.010,77.388 163.030 C 78.102 163.057,78.330 162.973,78.351 162.671 C 78.375 162.329,78.394 162.332,78.488 162.695 C 78.648 163.306,79.280 163.211,79.289 162.575 C 79.296 162.071,79.313 162.065,79.556 162.484 C 79.752 162.821,79.738 162.980,79.500 163.127 C 79.239 163.288,79.241 163.429,79.513 163.937 L 79.841 164.551 85.549 164.551 L 91.257 164.551 91.257 165.629 L 91.257 166.707 94.132 166.707 L 97.006 166.707 97.006 167.425 L 97.006 168.144 99.880 168.144 L 102.754 168.144 102.754 169.222 L 102.754 170.299 103.832 170.299 C 104.631 170.299,104.910 170.206,104.910 169.940 C 104.910 169.434,105.383 169.490,105.417 170.000 C 105.443 170.399,105.450 170.399,105.554 170.000 C 105.615 169.769,105.764 169.581,105.886 169.581 C 106.008 169.581,106.120 169.769,106.136 170.000 C 106.162 170.399,106.169 170.399,106.273 170.000 C 106.407 169.488,106.826 169.443,106.826 169.940 C 106.826 170.138,106.988 170.299,107.186 170.299 C 107.383 170.299,107.557 170.488,107.573 170.719 C 107.599 171.118,107.606 171.118,107.710 170.719 C 107.776 170.465,108.049 170.299,108.401 170.299 C 108.784 170.299,108.991 170.442,109.010 170.719 C 109.036 171.118,109.043 171.118,109.147 170.719 C 109.280 170.212,110.419 170.135,110.419 170.633 C 110.419 171.093,110.956 171.257,112.455 171.257 C 113.158 171.257,113.903 171.323,114.111 171.402 C 114.829 171.678,114.218 171.976,112.934 171.976 C 112.225 171.976,111.578 172.084,111.497 172.216 C 111.416 172.347,110.978 172.455,110.525 172.455 C 109.769 172.455,109.701 172.514,109.701 173.174 C 109.701 173.717,109.810 173.892,110.150 173.892 C 110.398 173.892,110.734 174.054,110.898 174.251 C 111.062 174.449,111.456 174.611,111.773 174.611 C 112.091 174.611,112.412 174.772,112.488 174.970 C 112.564 175.168,112.826 175.329,113.071 175.329 C 113.316 175.329,113.631 175.545,113.772 175.808 C 113.913 176.072,114.227 176.287,114.470 176.287 C 114.713 176.287,115.056 176.462,115.233 176.675 C 115.482 176.975,115.855 177.038,116.879 176.953 C 118.516 176.817,119.344 177.002,119.070 177.442 C 118.925 177.676,117.783 177.793,114.706 177.891 C 110.459 178.026,108.953 178.204,112.056 178.204 C 114.289 178.204,114.275 178.604,112.036 178.771 C 108.361 179.045,91.444 179.410,82.656 179.406 L 73.455 179.401 72.450 178.812 C 70.834 177.865,70.828 177.807,71.101 165.140 C 71.232 159.085,71.320 153.815,71.298 153.427 C 71.266 152.864,71.377 152.689,71.856 152.553 C 72.397 152.399,72.405 152.381,71.938 152.359 C 70.383 152.288,70.415 152.817,70.423 126.687 C 70.428 113.722,70.509 102.995,70.605 102.850 C 70.980 102.281,73.359 102.601,76.647 103.663 M121.212 114.534 C 121.684 115.382,121.226 115.754,119.923 115.581 C 117.791 115.298,117.429 114.859,118.411 113.746 C 119.329 112.703,120.353 112.991,121.212 114.534 M159.820 122.882 C 159.292 123.094,159.077 123.917,159.485 124.169 C 159.710 124.309,160.719 123.248,160.719 122.872 C 160.719 122.590,160.542 122.592,159.820 122.882 M96.064 155.697 C 96.318 155.833,96.527 156.031,96.527 156.135 C 96.527 156.407,95.484 156.334,95.273 156.048 C 94.833 155.448,95.252 155.262,96.064 155.697 M85.749 158.237 C 85.749 159.188,85.256 159.740,84.397 159.753 C 83.753 159.762,83.475 159.097,83.910 158.588 C 84.091 158.377,84.305 158.015,84.387 157.784 C 84.697 156.911,85.749 157.260,85.749 158.237 " stroke="none" fill="#f0f2f0" fill-rule="evenodd"></path><path id="path2" d="M165.509 89.296 C 165.509 89.682,166.479 89.905,166.791 89.590 C 166.999 89.381,166.963 89.352,166.644 89.474 C 166.411 89.562,166.061 89.501,165.865 89.339 C 165.642 89.154,165.509 89.138,165.509 89.296 M163.272 90.785 C 163.110 91.361,163.096 91.365,162.751 90.912 C 162.555 90.657,162.395 90.563,162.395 90.703 C 162.395 90.844,162.543 91.082,162.723 91.231 C 163.105 91.549,163.708 91.003,163.538 90.493 C 163.482 90.328,163.363 90.459,163.272 90.785 M151.146 95.918 C 150.794 96.342,151.019 96.777,151.571 96.739 C 151.936 96.714,151.935 96.700,151.557 96.601 C 151.326 96.541,151.138 96.397,151.138 96.282 C 151.138 96.166,151.326 95.962,151.557 95.828 C 151.787 95.693,151.855 95.580,151.706 95.576 C 151.557 95.572,151.306 95.726,151.146 95.918 M149.225 96.932 C 149.223 97.089,149.320 97.278,149.439 97.352 C 149.766 97.554,150.439 97.232,150.268 96.955 C 150.177 96.808,150.039 96.840,149.910 97.040 C 149.736 97.310,149.660 97.304,149.465 97.006 C 149.322 96.789,149.227 96.760,149.225 96.932 M119.301 112.998 C 118.850 113.161,117.861 114.295,117.852 114.662 C 117.833 115.407,120.218 115.748,121.073 115.123 C 121.600 114.738,119.954 112.764,119.301 112.998 M155.210 116.533 C 152.112 117.460,150.339 118.239,150.549 118.579 C 151.035 119.365,156.090 118.092,157.237 116.895 L 157.934 116.168 157.111 116.189 C 156.658 116.201,155.802 116.356,155.210 116.533 M160.375 123.492 C 159.212 124.655,159.825 125.743,161.444 125.388 C 162.473 125.162,162.583 124.653,161.783 123.818 C 161.004 123.006,160.888 122.979,160.375 123.492 M102.494 132.846 C 101.952 133.006,100.684 133.205,99.677 133.289 C 97.541 133.465,96.306 133.867,94.430 134.996 C 93.684 135.446,92.710 135.914,92.265 136.037 C 91.820 136.160,90.939 136.724,90.307 137.292 C 89.675 137.859,88.718 138.616,88.180 138.974 C 87.642 139.332,86.914 140.086,86.562 140.651 C 86.210 141.215,85.478 142.162,84.937 142.754 C 83.594 144.225,81.962 147.546,81.700 149.341 C 81.585 150.132,81.350 151.628,81.177 152.666 C 80.730 155.347,82.559 156.498,84.742 154.910 C 87.752 152.721,87.665 152.763,89.954 152.374 C 93.772 151.724,96.743 152.569,99.281 155.028 C 100.627 156.330,100.821 156.354,103.952 155.601 C 106.867 154.900,109.252 155.258,112.661 156.909 C 114.283 157.695,114.667 157.600,115.736 156.154 C 116.425 155.223,118.359 153.763,120.421 152.618 C 124.060 150.596,124.225 150.455,124.680 148.950 C 125.208 147.207,125.040 145.457,124.242 144.370 C 123.928 143.942,123.388 143.108,123.041 142.515 C 121.667 140.166,117.846 136.558,116.274 136.126 C 115.491 135.911,114.563 135.470,114.212 135.147 C 113.848 134.813,112.972 134.422,112.176 134.238 C 109.751 133.681,108.071 133.231,107.810 133.070 C 107.238 132.716,103.470 132.558,102.494 132.846 " stroke="none" fill="#ecb56a" fill-rule="evenodd"></path><path id="path3" d="M85.988 65.509 C 85.988 65.838,86.096 66.108,86.228 66.108 C 86.359 66.108,86.467 65.838,86.467 65.509 C 86.467 65.180,86.359 64.910,86.228 64.910 C 86.096 64.910,85.988 65.180,85.988 65.509 M80.838 66.210 C 79.035 66.561,79.696 66.820,82.395 66.819 C 84.533 66.819,85.212 66.541,84.059 66.139 C 83.153 65.823,82.778 65.832,80.838 66.210 M181.796 82.635 C 181.330 82.784,181.490 82.833,182.515 82.856 C 184.446 82.900,185.769 83.270,187.091 84.135 C 189.094 85.446,188.784 85.721,185.210 85.809 L 182.156 85.884 185.315 85.936 C 189.282 86.001,189.701 85.523,187.124 83.869 C 186.236 83.300,182.786 82.232,182.439 82.419 C 182.415 82.432,182.126 82.529,181.796 82.635 M179.940 83.039 C 180.171 83.100,180.548 83.100,180.778 83.039 C 181.009 82.979,180.820 82.930,180.359 82.930 C 179.898 82.930,179.710 82.979,179.940 83.039 M179.521 86.594 C 178.994 86.767,178.778 86.909,179.042 86.909 C 179.305 86.910,179.898 86.764,180.359 86.587 C 181.434 86.173,180.781 86.178,179.521 86.594 M174.468 87.365 C 174.719 87.662,175.096 87.896,175.307 87.885 C 175.631 87.869,175.634 87.846,175.329 87.734 C 175.132 87.662,174.754 87.428,174.491 87.214 C 174.016 86.830,174.016 86.831,174.468 87.365 M54.653 89.076 C 54.436 89.210,54.376 90.228,54.425 92.952 L 54.491 96.647 55.210 96.715 C 56.108 96.799,58.056 95.837,58.164 95.255 C 58.232 94.886,57.216 92.431,56.509 91.257 C 56.390 91.060,56.077 90.501,55.814 90.016 C 55.258 88.990,55.056 88.827,54.653 89.076 M164.232 89.022 C 164.144 89.110,164.074 89.298,164.076 89.441 C 164.078 89.584,164.186 89.539,164.317 89.341 C 164.520 89.034,164.615 89.059,164.972 89.515 C 165.278 89.905,165.485 89.986,165.749 89.818 C 166.025 89.641,166.033 89.587,165.783 89.585 C 165.580 89.582,165.515 89.433,165.609 89.188 C 165.731 88.869,165.695 88.848,165.416 89.080 C 165.182 89.274,165.023 89.285,164.917 89.113 C 164.740 88.826,164.464 88.789,164.232 89.022 M191.497 91.362 C 190.970 91.538,189.246 92.082,187.665 92.571 C 186.084 93.060,184.467 93.598,184.072 93.767 C 183.677 93.936,182.814 94.262,182.156 94.492 C 179.583 95.390,179.014 95.603,178.256 95.953 C 177.824 96.153,176.908 96.511,176.220 96.750 C 175.533 96.988,173.246 97.854,171.138 98.674 C 169.030 99.494,166.605 100.411,165.749 100.713 C 164.892 101.014,163.922 101.369,163.593 101.502 C 163.263 101.635,162.509 101.932,161.916 102.162 C 159.727 103.011,159.146 103.254,158.484 103.599 C 158.111 103.793,157.636 103.952,157.429 103.952 C 156.907 103.952,154.491 105.117,154.491 105.369 C 154.491 105.482,154.652 105.883,154.849 106.260 C 155.591 107.684,155.209 109.999,153.912 111.928 C 153.249 112.917,153.655 113.205,155.263 112.885 C 158.341 112.273,163.410 110.879,164.671 110.298 C 165.066 110.115,166.898 109.465,168.743 108.852 C 172.403 107.636,173.108 107.336,178.084 104.882 C 184.907 101.516,186.819 100.264,190.976 96.437 C 195.007 92.726,195.277 90.096,191.497 91.362 M159.324 91.551 C 159.169 91.706,159.050 92.053,159.061 92.323 C 159.079 92.802,159.110 92.754,159.423 91.769 C 159.505 91.510,159.599 91.503,159.878 91.735 C 160.152 91.962,160.171 92.139,159.965 92.540 C 159.708 93.040,159.715 93.040,160.219 92.515 C 160.504 92.219,160.845 91.976,160.977 91.976 C 161.109 91.976,161.078 91.826,160.908 91.643 C 160.698 91.417,160.547 91.393,160.437 91.568 C 160.324 91.749,160.177 91.743,159.941 91.547 C 159.686 91.336,159.538 91.336,159.324 91.551 M157.653 92.503 C 157.495 92.661,157.365 92.897,157.365 93.028 C 157.365 93.158,157.511 93.066,157.688 92.824 C 157.892 92.545,158.127 92.454,158.324 92.575 C 158.531 92.703,158.579 92.675,158.466 92.492 C 158.248 92.139,158.014 92.142,157.653 92.503 M155.848 93.333 C 155.603 93.578,155.659 94.371,155.921 94.371 C 156.048 94.371,156.086 94.199,156.005 93.988 C 155.925 93.777,156.009 93.509,156.193 93.393 C 156.377 93.276,156.410 93.179,156.267 93.177 C 156.125 93.175,155.936 93.246,155.848 93.333 M154.356 93.918 C 154.242 94.101,154.279 94.143,154.456 94.034 C 154.624 93.930,154.823 94.082,154.957 94.416 C 155.103 94.781,155.184 94.837,155.194 94.580 C 155.216 94.029,154.591 93.536,154.356 93.918 M152.862 94.659 C 152.704 94.817,152.582 95.113,152.590 95.317 C 152.599 95.538,152.695 95.464,152.828 95.134 C 152.961 94.801,153.161 94.649,153.328 94.752 C 153.502 94.859,153.542 94.820,153.436 94.648 C 153.225 94.306,153.215 94.306,152.862 94.659 M154.088 94.728 C 154.117 95.007,154.334 95.224,154.614 95.253 C 154.959 95.288,154.979 95.269,154.685 95.181 C 154.463 95.115,154.227 94.878,154.160 94.656 C 154.073 94.363,154.053 94.382,154.088 94.728 M150.796 95.968 C 150.712 96.188,150.770 96.484,150.925 96.627 C 151.133 96.817,151.161 96.804,151.032 96.576 C 150.936 96.406,150.987 96.109,151.146 95.918 C 151.317 95.712,151.336 95.569,151.193 95.569 C 151.059 95.569,150.880 95.749,150.796 95.968 M149.331 96.303 C 149.245 96.444,149.238 96.624,149.317 96.703 C 149.396 96.782,149.461 96.704,149.461 96.530 C 149.461 96.309,149.624 96.351,150.000 96.669 L 150.539 97.126 150.083 96.587 C 149.558 95.967,149.543 95.961,149.331 96.303 M102.386 97.021 C 102.300 97.161,101.970 97.374,101.653 97.494 C 101.141 97.689,101.078 97.859,101.078 99.041 C 101.078 100.559,101.122 100.594,103.607 101.051 C 106.017 101.493,105.991 101.532,104.866 99.191 C 103.766 96.902,102.918 96.160,102.386 97.021 M145.966 98.240 C 145.872 98.392,145.995 98.662,146.240 98.841 C 146.619 99.118,146.715 99.113,146.888 98.803 C 147.265 98.130,146.371 97.584,145.966 98.240 M144.621 98.980 C 144.830 99.233,144.847 99.395,144.675 99.480 C 144.534 99.549,144.557 99.577,144.725 99.543 C 145.147 99.457,145.109 98.868,144.671 98.724 C 144.371 98.624,144.363 98.667,144.621 98.980 M101.976 109.597 C 101.586 109.995,102.056 117.720,102.496 118.161 C 102.718 118.382,104.361 117.604,106.725 116.157 C 107.576 115.636,108.331 115.210,108.403 115.210 C 108.475 115.210,109.447 114.671,110.562 114.012 C 111.677 113.353,112.690 112.814,112.813 112.814 C 112.936 112.814,113.148 112.606,113.284 112.352 C 113.540 111.874,112.411 111.388,110.128 110.993 C 109.695 110.918,108.856 110.713,108.263 110.537 C 105.735 109.786,102.294 109.272,101.976 109.597 M121.093 118.455 C 120.725 118.646,120.243 118.802,120.021 118.802 C 119.798 118.802,119.514 118.903,119.389 119.025 C 119.264 119.148,118.731 119.406,118.204 119.598 C 117.166 119.978,113.380 121.511,112.216 122.023 C 110.478 122.787,108.576 123.557,108.024 123.720 C 107.695 123.817,107.213 124.044,106.953 124.224 C 106.693 124.404,106.235 124.551,105.935 124.551 C 105.635 124.551,105.389 124.659,105.389 124.790 C 105.389 125.162,109.186 125.072,110.517 124.668 C 111.164 124.472,112.072 124.311,112.536 124.311 C 113.000 124.311,113.710 124.212,114.115 124.091 C 114.519 123.971,115.713 123.694,116.766 123.477 C 117.820 123.260,119.168 122.933,119.760 122.750 C 120.353 122.568,121.108 122.386,121.437 122.347 C 122.021 122.277,122.036 122.227,122.044 120.281 C 122.052 118.035,122.021 117.974,121.093 118.455 M181.844 118.371 C 181.069 119.147,181.824 121.198,182.886 121.198 C 183.460 121.198,183.464 121.184,183.132 120.299 C 182.947 119.805,182.730 119.105,182.651 118.743 C 182.493 118.024,182.287 117.929,181.844 118.371 M72.065 121.936 C 71.594 123.476,71.172 148.086,71.625 147.633 C 71.781 147.477,71.870 145.420,71.866 142.076 C 71.863 139.155,71.956 136.766,72.072 136.766 C 72.426 136.766,72.468 137.230,72.436 140.838 C 72.363 149.041,72.385 148.743,71.856 148.743 C 71.066 148.743,71.304 149.539,72.223 149.970 C 73.009 150.337,73.054 150.335,73.054 149.924 C 73.054 149.413,73.490 149.087,74.051 149.179 C 74.702 149.286,74.767 148.852,74.355 147.136 C 74.140 146.241,73.862 143.892,73.737 141.916 C 73.405 136.670,73.395 136.287,73.593 136.287 C 73.692 136.287,73.772 133.485,73.772 130.060 C 73.772 126.138,73.685 123.832,73.537 123.832 C 73.390 123.832,73.277 126.202,73.238 130.120 C 73.148 138.967,72.729 138.450,72.575 129.301 C 72.477 123.478,72.314 121.124,72.065 121.936 " stroke="none" fill="#68c8e1" fill-rule="evenodd"></path><path id="path4" d="M179.760 83.139 C 177.248 83.499,175.626 84.397,174.879 85.840 C 173.784 87.957,174.494 88.068,179.639 86.587 C 182.241 85.838,182.860 85.749,185.408 85.749 C 188.777 85.749,189.093 85.445,187.091 84.135 C 185.231 82.917,183.216 82.643,179.760 83.139 M165.886 88.783 C 165.802 89.002,165.837 89.286,165.964 89.413 C 166.317 89.766,166.946 89.418,166.946 88.870 C 166.946 88.269,166.110 88.200,165.886 88.783 M164.229 89.451 C 164.041 89.940,164.300 90.583,164.640 90.469 C 164.789 90.420,164.910 90.128,164.910 89.820 C 164.910 89.169,164.436 88.912,164.229 89.451 M162.726 90.408 C 162.561 90.838,162.828 91.314,163.130 91.127 C 163.434 90.940,163.414 90.060,163.106 90.060 C 162.970 90.060,162.799 90.216,162.726 90.408 M160.846 91.245 C 160.683 91.509,161.539 92.034,161.765 91.808 C 161.848 91.725,161.916 91.513,161.916 91.337 C 161.916 90.974,161.059 90.900,160.846 91.245 M159.439 91.659 C 159.203 91.895,159.249 92.646,159.509 92.807 C 159.899 93.048,160.279 92.067,159.913 91.764 C 159.739 91.619,159.526 91.572,159.439 91.659 M157.693 92.811 C 157.609 93.028,157.661 93.326,157.809 93.473 C 158.123 93.788,158.248 93.698,158.360 93.079 C 158.465 92.506,157.897 92.278,157.693 92.811 M156.219 93.376 C 155.841 93.616,156.094 94.371,156.553 94.371 C 156.749 94.371,156.886 94.125,156.886 93.772 C 156.886 93.145,156.730 93.052,156.219 93.376 M154.405 94.058 C 154.109 94.355,154.256 95.090,154.611 95.090 C 154.808 95.090,154.970 94.881,154.970 94.625 C 154.970 94.125,154.654 93.809,154.405 94.058 M152.916 94.930 C 152.644 95.640,153.053 96.279,153.359 95.621 C 153.542 95.227,153.537 94.998,153.341 94.802 C 153.139 94.600,153.031 94.632,152.916 94.930 M151.297 95.968 C 151.022 96.244,151.123 96.527,151.497 96.527 C 151.695 96.527,151.856 96.365,151.856 96.168 C 151.856 95.794,151.573 95.692,151.297 95.968 M149.461 96.752 C 149.461 97.024,149.569 97.246,149.701 97.246 C 149.832 97.246,149.940 97.090,149.940 96.900 C 149.940 96.711,149.832 96.489,149.701 96.407 C 149.569 96.326,149.461 96.481,149.461 96.752 M148.024 97.725 C 148.024 98.172,148.088 98.236,148.311 98.012 C 148.535 97.788,148.535 97.661,148.311 97.437 C 148.088 97.214,148.024 97.277,148.024 97.725 " stroke="none" fill="#366678" fill-rule="evenodd"></path></g></svg>